<svg width="22" height="28" viewBox="0 0 22 28" fill="none" xmlns="http://www.w3.org/2000/svg">
<path d="M19.0002 5.99935H16.3335C16.3335 3.05268 13.9468 0.666016 11.0002 0.666016C8.0535 0.666016 5.66683 3.05268 5.66683 5.99935H3.00016C1.5335 5.99935 0.333496 7.19935 0.333496 8.66602V24.666C0.333496 26.1327 1.5335 27.3327 3.00016 27.3327H19.0002C20.4668 27.3327 21.6668 26.1327 21.6668 24.666V8.66602C21.6668 7.19935 20.4668 5.99935 19.0002 5.99935ZM11.0002 3.33268C12.4668 3.33268 13.6668 4.53268 13.6668 5.99935H8.3335C8.3335 4.53268 9.5335 3.33268 11.0002 3.33268ZM19.0002 24.666H3.00016V8.66602H5.66683V11.3327C5.66683 12.066 6.26683 12.666 7.00016 12.666C7.7335 12.666 8.3335 12.066 8.3335 11.3327V8.66602H13.6668V11.3327C13.6668 12.066 14.2668 12.666 15.0002 12.666C15.7335 12.666 16.3335 12.066 16.3335 11.3327V8.66602H19.0002V24.666Z" fill="#002F52"/>
</svg>
