<svg width="28" height="25" viewBox="0 0 28 25" fill="none" xmlns="http://www.w3.org/2000/svg">
<path d="M19.9998 0C17.6798 0 15.4532 1.08 13.9998 2.78667C12.5465 1.08 10.3198 0 7.99984 0C3.89317 0 0.666504 3.22667 0.666504 7.33333C0.666504 12.3733 5.19984 16.48 12.0665 22.72L13.9998 24.4667L15.9332 22.7067C22.7998 16.48 27.3332 12.3733 27.3332 7.33333C27.3332 3.22667 24.1065 0 19.9998 0ZM14.1332 20.7333L13.9998 20.8667L13.8665 20.7333C7.51984 14.9867 3.33317 11.1867 3.33317 7.33333C3.33317 4.66667 5.33317 2.66667 7.99984 2.66667C10.0532 2.66667 12.0532 3.98667 12.7598 5.81333H15.2532C15.9465 3.98667 17.9465 2.66667 19.9998 2.66667C22.6665 2.66667 24.6665 4.66667 24.6665 7.33333C24.6665 11.1867 20.4798 14.9867 14.1332 20.7333Z" fill="#002F52"/>
</svg>
